<svg xmlns="http://www.w3.org/2000/svg" width="700" height="306" viewBox="0 0 700 306" font-family="ui-monospace, 'SF Mono', Menlo, Consolas, monospace" font-size="14">
<rect width="700" height="306" rx="8" fill="#1e1e2e"/>
<circle cx="16" cy="13" r="5" fill="#f38ba8"/><circle cx="32" cy="13" r="5" fill="#f9e2af"/><circle cx="48" cy="13" r="5" fill="#a6e3a1"/>
<text x="350" y="17" fill="#a6adc8" font-size="12" text-anchor="middle">/astrolabe pane, tasks tab</text>
<rect x="14.0" y="40" width="8.4" height="18" fill="rgb(38,38,38)"/>
<text x="14.0" y="53" fill="rgb(175,215,255)" xml:space="preserve" textLength="8.4" lengthAdjust="spacingAndGlyphs">│</text>
<rect x="22.4" y="40" width="655.2" height="18" fill="rgb(38,38,38)"/>
<rect x="677.6" y="40" width="8.4" height="18" fill="rgb(38,38,38)"/>
<text x="677.6" y="53" fill="rgb(148,148,148)" xml:space="preserve" textLength="8.4" lengthAdjust="spacingAndGlyphs">✕</text>
<rect x="14.0" y="58" width="8.4" height="18" fill="rgb(38,38,38)"/>
<text x="14.0" y="71" fill="rgb(175,215,255)" xml:space="preserve" textLength="8.4" lengthAdjust="spacingAndGlyphs">│</text>
<rect x="22.4" y="58" width="75.6" height="18" fill="rgb(38,38,38)"/>
<text x="22.4" y="71" fill="#cdd6f4" font-weight="bold" xml:space="preserve" textLength="75.6" lengthAdjust="spacingAndGlyphs">[ Specs ]</text>
<rect x="98.0" y="58" width="75.6" height="18" fill="rgb(38,38,38)"/>
<text x="98.0" y="71" fill="rgb(175,215,255)" font-weight="bold" xml:space="preserve" textLength="75.6" lengthAdjust="spacingAndGlyphs">[ Tasks ]</text>
<rect x="173.6" y="58" width="92.4" height="18" fill="rgb(38,38,38)"/>
<text x="173.6" y="71" fill="#cdd6f4" font-weight="bold" xml:space="preserve" textLength="92.4" lengthAdjust="spacingAndGlyphs">[ Session ]</text>
<rect x="14.0" y="76" width="8.4" height="18" fill="rgb(38,38,38)"/>
<text x="14.0" y="89" fill="rgb(175,215,255)" xml:space="preserve" textLength="8.4" lengthAdjust="spacingAndGlyphs">│</text>
<rect x="22.4" y="76" width="75.6" height="18" fill="rgb(38,38,38)"/>
<text x="22.4" y="89" fill="rgb(175,175,215)" xml:space="preserve" textLength="75.6" lengthAdjust="spacingAndGlyphs">9/20 done</text>
<rect x="14.0" y="94" width="8.4" height="18" fill="rgb(38,38,38)"/>
<text x="14.0" y="107" fill="rgb(175,215,255)" xml:space="preserve" textLength="8.4" lengthAdjust="spacingAndGlyphs">│</text>
<rect x="22.4" y="94" width="361.2" height="18" fill="rgb(38,38,38)"/>
<text x="22.4" y="107" fill="rgb(215,215,255)" xml:space="preserve" textLength="361.2" lengthAdjust="spacingAndGlyphs">T010 Write failing tests for the empty cart</text>
<rect x="14.0" y="112" width="8.4" height="18" fill="rgb(38,38,38)"/>
<text x="14.0" y="125" fill="rgb(175,215,255)" xml:space="preserve" textLength="8.4" lengthAdjust="spacingAndGlyphs">│</text>
<rect x="22.4" y="112" width="260.4" height="18" fill="rgb(38,38,38)"/>
<text x="22.4" y="125" fill="rgb(215,215,255)" xml:space="preserve" textLength="260.4" lengthAdjust="spacingAndGlyphs">T011 Show an empty-cart message</text>
<rect x="14.0" y="130" width="8.4" height="18" fill="rgb(38,38,38)"/>
<text x="14.0" y="143" fill="rgb(175,215,255)" xml:space="preserve" textLength="8.4" lengthAdjust="spacingAndGlyphs">│</text>
<rect x="22.4" y="130" width="394.8" height="18" fill="rgb(38,38,38)"/>
<text x="22.4" y="143" fill="rgb(215,215,255)" xml:space="preserve" textLength="394.8" lengthAdjust="spacingAndGlyphs">T012 Write failing tests for out-of-stock items</text>
<rect x="14.0" y="148" width="8.4" height="18" fill="rgb(38,38,38)"/>
<text x="14.0" y="161" fill="rgb(175,215,255)" xml:space="preserve" textLength="8.4" lengthAdjust="spacingAndGlyphs">│</text>
<rect x="22.4" y="148" width="344.4" height="18" fill="rgb(38,38,38)"/>
<text x="22.4" y="161" fill="rgb(215,215,255)" xml:space="preserve" textLength="344.4" lengthAdjust="spacingAndGlyphs">T013 Block checkout of out-of-stock items</text>
<rect x="14.0" y="166" width="8.4" height="18" fill="rgb(38,38,38)"/>
<text x="14.0" y="179" fill="rgb(175,215,255)" xml:space="preserve" textLength="8.4" lengthAdjust="spacingAndGlyphs">│</text>
<rect x="22.4" y="166" width="478.8" height="18" fill="rgb(38,38,38)"/>
<text x="22.4" y="179" fill="rgb(215,215,255)" xml:space="preserve" textLength="478.8" lengthAdjust="spacingAndGlyphs">T014 Write the cart page tests in tests/cart/page.test.ts</text>
<rect x="14.0" y="184" width="8.4" height="18" fill="rgb(38,38,38)"/>
<text x="14.0" y="197" fill="rgb(175,215,255)" xml:space="preserve" textLength="8.4" lengthAdjust="spacingAndGlyphs">│</text>
<rect x="22.4" y="184" width="201.6" height="18" fill="rgb(38,38,38)"/>
<text x="22.4" y="197" fill="rgb(215,215,255)" xml:space="preserve" textLength="201.6" lengthAdjust="spacingAndGlyphs">T015 Build the cart page</text>
<rect x="14.0" y="202" width="8.4" height="18" fill="rgb(38,38,38)"/>
<text x="14.0" y="215" fill="rgb(175,215,255)" xml:space="preserve" textLength="8.4" lengthAdjust="spacingAndGlyphs">│</text>
<rect x="22.4" y="202" width="302.4" height="18" fill="rgb(38,38,38)"/>
<text x="22.4" y="215" fill="rgb(215,215,255)" xml:space="preserve" textLength="302.4" lengthAdjust="spacingAndGlyphs">T016 Add the cart icon to the header</text>
<rect x="14.0" y="220" width="8.4" height="18" fill="rgb(38,38,38)"/>
<text x="14.0" y="233" fill="rgb(175,215,255)" xml:space="preserve" textLength="8.4" lengthAdjust="spacingAndGlyphs">│</text>
<rect x="22.4" y="220" width="302.4" height="18" fill="rgb(38,38,38)"/>
<text x="22.4" y="233" fill="rgb(215,215,255)" xml:space="preserve" textLength="302.4" lengthAdjust="spacingAndGlyphs">T017 Show the item count on the icon</text>
<rect x="14.0" y="238" width="8.4" height="18" fill="rgb(38,38,38)"/>
<text x="14.0" y="251" fill="rgb(175,215,255)" xml:space="preserve" textLength="8.4" lengthAdjust="spacingAndGlyphs">│</text>
<rect x="22.4" y="238" width="302.4" height="18" fill="rgb(38,38,38)"/>
<text x="22.4" y="251" fill="rgb(215,215,255)" xml:space="preserve" textLength="302.4" lengthAdjust="spacingAndGlyphs">T018 Write the checkout button tests</text>
<rect x="14.0" y="256" width="8.4" height="18" fill="rgb(38,38,38)"/>
<text x="14.0" y="269" fill="rgb(175,215,255)" xml:space="preserve" textLength="8.4" lengthAdjust="spacingAndGlyphs">│</text>
<rect x="22.4" y="256" width="243.6" height="18" fill="rgb(38,38,38)"/>
<text x="22.4" y="269" fill="rgb(215,215,255)" xml:space="preserve" textLength="243.6" lengthAdjust="spacingAndGlyphs">T019 Wire the checkout button</text>
<rect x="14.0" y="274" width="8.4" height="18" fill="rgb(38,38,38)"/>
<text x="14.0" y="287" fill="rgb(175,215,255)" xml:space="preserve" textLength="8.4" lengthAdjust="spacingAndGlyphs">│</text>
<rect x="22.4" y="274" width="184.8" height="18" fill="rgb(38,38,38)"/>
<text x="22.4" y="287" fill="rgb(215,215,255)" xml:space="preserve" textLength="184.8" lengthAdjust="spacingAndGlyphs">T020 Update the README</text>
</svg>
